<svg width="152" height="147" viewBox="0 0 152 147" fill="none" xmlns="http://www.w3.org/2000/svg">
<g clip-path="url(#clip0_8_69)">
<path d="M147.519 28.8485C146.77 29.0602 146.021 29.2573 145.271 29.4409C140.691 30.5595 140.27 29.0835 143.586 25.8271C145.071 24.3678 146.383 22.7807 147.523 21.0665C150.078 17.2226 147.862 15.5462 143.516 17.3418C141.966 17.9823 140.39 18.5631 138.792 19.0809C134.314 20.5352 127.96 18.3414 123.969 15.8939C118.932 12.8046 113.207 11.2607 106.793 11.2607C97.8083 11.2607 90.1502 14.3252 83.8142 20.4493C77.4802 26.5766 74.3115 33.9849 74.3115 42.6719C74.3115 43.8599 74.3817 45.0661 74.5204 46.289C74.7479 48.2795 71.2815 49.7225 66.6037 49.0836C56.4848 47.702 46.8708 44.7367 37.7597 40.1911C28.7239 35.6837 20.749 30.0114 13.8366 23.1741C10.5323 19.9063 6.06328 20.1878 4.82952 24.599C4.09032 27.2433 3.72268 29.9933 3.72268 32.8496C3.72268 38.2323 5.02969 43.2245 7.64427 47.8263C8.94457 50.1164 10.4674 52.1897 12.2161 54.0448C15.1575 57.1674 14.7074 58.9792 10.6131 57.869C6.52038 56.7588 3.52111 55.1106 3.52111 55.2182C3.52111 55.3258 3.52111 55.4134 3.52111 55.4134C3.52111 62.997 5.98332 69.6604 10.9108 75.3973C13.9462 78.9317 17.4724 81.6619 21.4882 83.5849C25.7229 85.6135 27.6956 86.745 25.3276 87.0414C23.899 87.2201 22.4617 87.3093 21.016 87.3093C20.0375 87.3093 19.0109 87.2663 17.9399 87.1787C16.2459 87.0398 15.9415 90.4533 18.5096 94.2891C20.5508 97.3371 23.1634 100.019 26.3461 102.336C29.5833 104.694 33.0721 106.387 36.8069 107.418C41.3514 108.67 42.2634 110.952 38.2115 113.302C28.1851 119.12 17.0894 122.029 4.92597 122.029C3.5555 122.029 2.24821 121.999 0.999352 121.941C-1.16847 121.84 0.285879 123.687 4.47082 125.806C17.5479 132.43 31.7097 135.74 46.9583 135.74C58.4871 135.74 69.3141 133.974 79.4381 130.441C89.5584 126.909 98.2076 122.174 105.38 116.242C112.553 110.31 118.738 103.488 123.934 95.7716C129.129 88.0558 132.999 80.0005 135.548 71.6063C138.094 63.2103 139.369 54.7978 139.369 46.3687C139.369 45.6092 139.362 44.9274 139.35 44.3268C139.326 43.1983 142.413 40.1436 145.859 37.018C147.414 35.6066 148.897 34.1255 150.314 32.5719C153.44 29.1414 152.055 27.5694 147.519 28.8485Z" fill="white"/>
</g>
<defs>
<clipPath id="clip0_8_69">
<rect width="152" height="147" fill="white"/>
</clipPath>
</defs>
</svg>
