<svg width="268" height="132" viewBox="0 0 268 132" fill="none" xmlns="http://www.w3.org/2000/svg">
<g filter="url(#filter0_d_1_21)">
<g filter="url(#filter1_d_1_21)">
<mask id="path-1-outside-1_1_21" maskUnits="userSpaceOnUse" x="-0.5" y="17" width="58" height="68" fill="black">
<rect fill="white" x="-0.5" y="17" width="58" height="68"/>
<path d="M16.708 79.12H48.004L28.324 32.752L7.396 82H4.324L28.324 25.36L52.324 82H16.708V79.12Z"/>
</mask>
<path d="M16.708 79.12H48.004L28.324 32.752L7.396 82H4.324L28.324 25.36L52.324 82H16.708V79.12Z" fill="white"/>
<path d="M16.708 79.12V76.12H13.708V79.12H16.708ZM48.004 79.12V82.12H52.5363L50.7656 77.9479L48.004 79.12ZM28.324 32.752L31.0856 31.5799L28.3257 25.0774L25.563 31.5787L28.324 32.752ZM7.396 82V85H9.38079L10.157 83.1733L7.396 82ZM4.324 82L1.56174 80.8296L-0.205394 85H4.324V82ZM28.324 25.36L31.0863 24.1895L28.324 17.6706L25.5617 24.1895L28.324 25.36ZM52.324 82V85H56.8534L55.0863 80.8296L52.324 82ZM16.708 82H13.708V85H16.708V82ZM16.708 82.12H48.004V76.12H16.708V82.12ZM50.7656 77.9479L31.0856 31.5799L25.5624 33.9241L45.2424 80.2921L50.7656 77.9479ZM25.563 31.5787L4.63496 80.8267L10.157 83.1733L31.085 33.9253L25.563 31.5787ZM7.396 79H4.324V85H7.396V79ZM7.08626 83.1704L31.0863 26.5304L25.5617 24.1895L1.56174 80.8296L7.08626 83.1704ZM25.5617 26.5304L49.5617 83.1704L55.0863 80.8296L31.0863 24.1895L25.5617 26.5304ZM52.324 79H16.708V85H52.324V79ZM19.708 82V79.12H13.708V82H19.708Z" fill="#C99613" mask="url(#path-1-outside-1_1_21)"/>
</g>
<path d="M178.11 90.5H179.49V101H178.11V90.5ZM184.461 93.5C185.221 93.5 185.801 93.8 186.201 94.4C186.611 94.99 186.816 95.79 186.816 96.8V101H185.511V96.965C185.511 96.185 185.396 95.61 185.166 95.24C184.946 94.86 184.611 94.67 184.161 94.67C183.831 94.67 183.526 94.765 183.246 94.955C182.966 95.135 182.731 95.39 182.541 95.72V101H181.236V93.65H182.346L182.436 94.565C182.646 94.235 182.926 93.975 183.276 93.785C183.636 93.595 184.031 93.5 184.461 93.5ZM190.37 101.15C189.8 101.15 189.375 100.98 189.095 100.64C188.825 100.3 188.69 99.885 188.69 99.395V94.685H187.67L187.79 93.65H188.69V91.835L189.995 91.7V93.65H191.585V94.685H189.995V98.87C189.995 99.32 190.075 99.635 190.235 99.815C190.405 99.995 190.695 100.085 191.105 100.085H191.57L191.45 101.15H190.37ZM195.768 101.15C195.028 101.15 194.393 100.98 193.863 100.64C193.343 100.29 192.948 99.82 192.678 99.23C192.418 98.64 192.288 97.985 192.288 97.265C192.288 96.575 192.408 95.945 192.648 95.375C192.898 94.795 193.253 94.34 193.713 94.01C194.183 93.67 194.738 93.5 195.378 93.5C196.198 93.5 196.863 93.775 197.373 94.325C197.893 94.875 198.153 95.635 198.153 96.605C198.153 96.775 198.133 97.01 198.093 97.31H193.623C193.653 98.18 193.868 98.84 194.268 99.29C194.678 99.74 195.208 99.965 195.858 99.965C196.168 99.965 196.493 99.93 196.833 99.86C197.183 99.78 197.488 99.67 197.748 99.53L197.868 100.7C197.318 101 196.618 101.15 195.768 101.15ZM196.818 96.395C196.818 95.895 196.693 95.49 196.443 95.18C196.203 94.86 195.853 94.7 195.393 94.7C194.943 94.7 194.568 94.84 194.268 95.12C193.978 95.4 193.783 95.825 193.683 96.395H196.818ZM199.33 93.65H200.395L200.56 94.88C200.89 94.4 201.2 94.05 201.49 93.83C201.79 93.61 202.105 93.5 202.435 93.5C202.565 93.5 202.68 93.515 202.78 93.545L202.645 95.03C202.515 95 202.365 94.985 202.195 94.985C201.865 94.985 201.555 95.07 201.265 95.24C200.975 95.4 200.765 95.59 200.635 95.81V101H199.33V93.65ZM206.873 93.5C207.633 93.5 208.213 93.8 208.613 94.4C209.023 94.99 209.228 95.79 209.228 96.8V101H207.923V96.965C207.923 96.185 207.808 95.61 207.578 95.24C207.358 94.86 207.023 94.67 206.573 94.67C206.243 94.67 205.938 94.765 205.658 94.955C205.378 95.135 205.143 95.39 204.953 95.72V101H203.648V93.65H204.758L204.848 94.565C205.058 94.235 205.338 93.975 205.688 93.785C206.048 93.595 206.443 93.5 206.873 93.5ZM212.18 101.15C211.62 101.15 211.16 100.95 210.8 100.55C210.44 100.15 210.26 99.64 210.26 99.02C210.26 98.1 210.645 97.44 211.415 97.04C212.185 96.63 213.045 96.415 213.995 96.395C213.995 95.755 213.9 95.31 213.71 95.06C213.52 94.81 213.2 94.685 212.75 94.685C212.17 94.685 211.58 94.91 210.98 95.36L210.815 94.265C211.445 93.755 212.175 93.5 213.005 93.5C213.795 93.5 214.38 93.73 214.76 94.19C215.14 94.64 215.33 95.37 215.33 96.38V98.525C215.33 99.095 215.37 99.5 215.45 99.74C215.53 99.97 215.705 100.085 215.975 100.085H216.14L215.975 101.15H215.69C215.23 101.15 214.89 101.065 214.67 100.895C214.45 100.725 214.27 100.45 214.13 100.07C213.9 100.4 213.615 100.665 213.275 100.865C212.935 101.055 212.57 101.15 212.18 101.15ZM212.585 100.085C212.825 100.085 213.075 99.995 213.335 99.815C213.595 99.625 213.815 99.38 213.995 99.08V97.325C213.225 97.365 212.64 97.515 212.24 97.775C211.84 98.025 211.64 98.415 211.64 98.945C211.64 99.705 211.955 100.085 212.585 100.085ZM219.271 101.15C218.701 101.15 218.276 100.98 217.996 100.64C217.726 100.3 217.591 99.885 217.591 99.395V94.685H216.571L216.691 93.65H217.591V91.835L218.896 91.7V93.65H220.486V94.685H218.896V98.87C218.896 99.32 218.976 99.635 219.136 99.815C219.306 99.995 219.596 100.085 220.006 100.085H220.471L220.351 101.15H219.271ZM221.654 90.5H222.959V91.985H221.654V90.5ZM221.654 93.65H222.959V101H221.654V93.65ZM227.401 101.15C226.741 101.15 226.171 100.985 225.691 100.655C225.211 100.315 224.841 99.855 224.581 99.275C224.331 98.695 224.206 98.045 224.206 97.325C224.206 96.605 224.331 95.955 224.581 95.375C224.841 94.795 225.211 94.34 225.691 94.01C226.171 93.67 226.741 93.5 227.401 93.5C228.051 93.5 228.616 93.67 229.096 94.01C229.576 94.34 229.941 94.795 230.191 95.375C230.441 95.955 230.566 96.605 230.566 97.325C230.566 98.045 230.441 98.695 230.191 99.275C229.941 99.855 229.576 100.315 229.096 100.655C228.616 100.985 228.051 101.15 227.401 101.15ZM227.401 99.995C227.981 99.995 228.431 99.76 228.751 99.29C229.071 98.82 229.231 98.165 229.231 97.325C229.231 96.485 229.071 95.835 228.751 95.375C228.431 94.905 227.981 94.67 227.401 94.67C226.801 94.67 226.341 94.905 226.021 95.375C225.701 95.835 225.541 96.485 225.541 97.325C225.541 98.175 225.701 98.835 226.021 99.305C226.341 99.765 226.801 99.995 227.401 99.995ZM234.896 93.5C235.656 93.5 236.236 93.8 236.636 94.4C237.046 94.99 237.251 95.79 237.251 96.8V101H235.946V96.965C235.946 96.185 235.831 95.61 235.601 95.24C235.381 94.86 235.046 94.67 234.596 94.67C234.266 94.67 233.961 94.765 233.681 94.955C233.401 95.135 233.166 95.39 232.976 95.72V101H231.671V93.65H232.781L232.871 94.565C233.081 94.235 233.361 93.975 233.711 93.785C234.071 93.595 234.466 93.5 234.896 93.5ZM240.203 101.15C239.643 101.15 239.183 100.95 238.823 100.55C238.463 100.15 238.283 99.64 238.283 99.02C238.283 98.1 238.668 97.44 239.438 97.04C240.208 96.63 241.068 96.415 242.018 96.395C242.018 95.755 241.923 95.31 241.733 95.06C241.543 94.81 241.223 94.685 240.773 94.685C240.193 94.685 239.603 94.91 239.003 95.36L238.838 94.265C239.468 93.755 240.198 93.5 241.028 93.5C241.818 93.5 242.403 93.73 242.783 94.19C243.163 94.64 243.353 95.37 243.353 96.38V98.525C243.353 99.095 243.393 99.5 243.473 99.74C243.553 99.97 243.728 100.085 243.998 100.085H244.163L243.998 101.15H243.713C243.253 101.15 242.913 101.065 242.693 100.895C242.473 100.725 242.293 100.45 242.153 100.07C241.923 100.4 241.638 100.665 241.298 100.865C240.958 101.055 240.593 101.15 240.203 101.15ZM240.608 100.085C240.848 100.085 241.098 99.995 241.358 99.815C241.618 99.625 241.838 99.38 242.018 99.08V97.325C241.248 97.365 240.663 97.515 240.263 97.775C239.863 98.025 239.663 98.415 239.663 98.945C239.663 99.705 239.978 100.085 240.608 100.085ZM246.902 101.15C246.342 101.15 245.927 100.98 245.657 100.64C245.387 100.3 245.252 99.88 245.252 99.38V89.75H246.557V98.6C246.557 99.04 246.577 99.365 246.617 99.575C246.667 99.775 246.757 99.91 246.887 99.98C247.017 100.05 247.227 100.085 247.517 100.085L247.352 101.15H246.902Z" fill="#FFFDFD"/>
<g style="mix-blend-mode:color-dodge">
<path d="M89.476 76.464C88.9213 76.9333 88.196 77.3173 87.3 77.616C86.4467 77.872 85.444 78 84.292 78C82.756 78 81.476 77.808 80.452 77.424C79.4707 77.04 78.8307 76.3787 78.532 75.44C77.3373 71.6853 76.356 68.656 75.588 66.352C74.82 64.0053 74.2227 61.9573 73.796 60.208H73.476C73.348 62.7253 73.2413 65.0293 73.156 67.12C73.1133 69.168 73.0707 71.1733 73.028 73.136C73.028 75.0987 72.9853 77.0827 72.9 79.088C72.8573 81.0933 72.772 83.312 72.644 85.744C72.0893 85.9573 71.364 86.128 70.468 86.256C69.572 86.4267 68.676 86.512 67.78 86.512C65.9027 86.512 64.4307 86.2133 63.364 85.616C62.34 85.0187 61.828 83.9307 61.828 82.352L63.684 49.712C64.0253 49.1573 64.772 48.56 65.924 47.92C67.076 47.28 68.6973 46.96 70.788 46.96C73.0493 46.96 74.82 47.3227 76.1 48.048C77.38 48.7307 78.3187 49.8613 78.916 51.44C79.3 52.464 79.7053 53.6373 80.132 54.96C80.6013 56.2827 81.0493 57.648 81.476 59.056C81.9453 60.464 82.3933 61.872 82.82 63.28C83.2467 64.6453 83.6307 65.8827 83.972 66.992H84.292C85.316 63.408 86.34 59.952 87.364 56.624C88.388 53.2533 89.3267 50.4373 90.18 48.176C90.82 47.8347 91.6307 47.5573 92.612 47.344C93.636 47.088 94.7667 46.96 96.004 46.96C98.0947 46.96 99.8013 47.28 101.124 47.92C102.447 48.5173 103.215 49.392 103.428 50.544C103.599 51.3973 103.769 52.72 103.94 54.512C104.153 56.2613 104.367 58.2453 104.58 60.464C104.793 62.6827 105.007 65.0293 105.22 67.504C105.433 69.9787 105.625 72.368 105.796 74.672C106.009 76.9333 106.18 79.024 106.308 80.944C106.436 82.8213 106.521 84.272 106.564 85.296C105.839 85.7227 105.071 86.0213 104.26 86.192C103.492 86.4053 102.489 86.512 101.252 86.512C99.6307 86.512 98.2653 86.2347 97.156 85.68C96.0467 85.1253 95.4493 84.0373 95.364 82.416C95.108 77.7653 94.9373 73.584 94.852 69.872C94.8093 66.16 94.724 63.0453 94.596 60.528H94.276C93.8493 62.192 93.2307 64.2827 92.42 66.8C91.6093 69.3173 90.628 72.5387 89.476 76.464ZM112.641 55.344C113.067 55.216 113.729 55.088 114.625 54.96C115.563 54.832 116.523 54.768 117.505 54.768C118.443 54.768 119.275 54.832 120.001 54.96C120.769 55.088 121.409 55.344 121.921 55.728C122.433 56.112 122.817 56.6453 123.073 57.328C123.371 57.968 123.521 58.8213 123.521 59.888V73.648C123.521 75.3973 123.947 76.656 124.801 77.424C125.654 78.1493 126.891 78.512 128.513 78.512C129.494 78.512 130.283 78.4267 130.881 78.256C131.521 78.0853 132.011 77.9147 132.353 77.744V55.344C132.779 55.216 133.441 55.088 134.337 54.96C135.275 54.832 136.235 54.768 137.217 54.768C138.155 54.768 138.987 54.832 139.713 54.96C140.481 55.088 141.121 55.344 141.632 55.728C142.145 56.112 142.529 56.6453 142.785 57.328C143.083 57.968 143.233 58.8213 143.233 59.888V79.344C143.233 81.4773 142.337 83.0773 140.545 84.144C139.051 85.0827 137.259 85.7867 135.169 86.256C133.121 86.768 130.881 87.024 128.449 87.024C126.145 87.024 124.011 86.768 122.049 86.256C120.129 85.744 118.465 84.9547 117.057 83.888C115.649 82.8213 114.561 81.456 113.793 79.792C113.025 78.0853 112.641 76.0373 112.641 73.648V55.344ZM160.963 85.936C160.493 86.0213 159.789 86.128 158.851 86.256C157.955 86.4267 157.037 86.512 156.099 86.512C155.16 86.512 154.307 86.448 153.539 86.32C152.813 86.192 152.195 85.936 151.683 85.552C151.171 85.168 150.765 84.656 150.467 84.016C150.211 83.3333 150.083 82.4587 150.083 81.392V44.272C150.552 44.1867 151.235 44.08 152.131 43.952C153.069 43.7813 154.008 43.696 154.947 43.696C155.885 43.696 156.717 43.76 157.443 43.888C158.211 44.016 158.851 44.272 159.363 44.656C159.875 45.04 160.259 45.5733 160.515 46.256C160.813 46.896 160.963 47.7493 160.963 48.816V85.936ZM184.276 87.024C181.759 87.024 179.412 86.6827 177.236 86C175.103 85.2747 173.225 84.208 171.604 82.8C170.025 81.392 168.767 79.6213 167.828 77.488C166.932 75.3547 166.484 72.8587 166.484 70C166.484 67.184 166.932 64.7733 167.828 62.768C168.767 60.72 169.983 59.056 171.476 57.776C172.969 56.4533 174.676 55.4933 176.596 54.896C178.516 54.256 180.479 53.936 182.484 53.936C184.745 53.936 186.793 54.2773 188.628 54.96C190.505 55.6427 192.105 56.5813 193.428 57.776C194.793 58.9707 195.839 60.4 196.564 62.064C197.332 63.728 197.716 65.5413 197.716 67.504C197.716 68.9547 197.311 70.064 196.5 70.832C195.689 71.6 194.559 72.0907 193.108 72.304L177.3 74.672C177.769 76.08 178.729 77.1467 180.18 77.872C181.631 78.5547 183.295 78.896 185.172 78.896C186.921 78.896 188.564 78.6827 190.1 78.256C191.679 77.7867 192.959 77.2533 193.94 76.656C194.623 77.0827 195.199 77.68 195.668 78.448C196.137 79.216 196.372 80.0267 196.372 80.88C196.372 82.8 195.476 84.2293 193.684 85.168C192.319 85.8933 190.783 86.384 189.076 86.64C187.369 86.896 185.769 87.024 184.276 87.024ZM182.484 61.872C181.46 61.872 180.564 62.0427 179.796 62.384C179.071 62.7253 178.473 63.1733 178.004 63.728C177.535 64.24 177.172 64.8373 176.916 65.52C176.703 66.16 176.575 66.8213 176.532 67.504L187.476 65.712C187.348 64.8587 186.879 64.0053 186.068 63.152C185.257 62.2987 184.063 61.872 182.484 61.872ZM213.833 75.312C213.833 76.4213 214.174 77.2107 214.857 77.68C215.582 78.1493 216.585 78.384 217.865 78.384C218.505 78.384 219.166 78.3413 219.849 78.256C220.532 78.128 221.129 77.9787 221.641 77.808C222.025 78.2773 222.345 78.8107 222.601 79.408C222.9 79.9627 223.049 80.6453 223.049 81.456C223.049 83.0773 222.43 84.4 221.193 85.424C219.998 86.448 217.865 86.96 214.793 86.96C211.038 86.96 208.137 86.1067 206.089 84.4C204.084 82.6933 203.081 79.92 203.081 76.08V48.688C203.55 48.56 204.212 48.432 205.065 48.304C205.961 48.1333 206.9 48.048 207.881 48.048C209.758 48.048 211.209 48.3893 212.233 49.072C213.3 49.712 213.833 51.0987 213.833 53.232V57.328H222.217C222.473 57.7973 222.708 58.3947 222.921 59.12C223.177 59.8027 223.305 60.5707 223.305 61.424C223.305 62.9173 222.964 64.0053 222.281 64.688C221.641 65.328 220.766 65.648 219.657 65.648H213.833V75.312Z" fill="white"/>
</g>
</g>
<defs>
<filter id="filter0_d_1_21" x="0.323975" y="25.36" width="251.193" height="83.79" filterUnits="userSpaceOnUse" color-interpolation-filters="sRGB">
<feFlood flood-opacity="0" result="BackgroundImageFix"/>
<feColorMatrix in="SourceAlpha" type="matrix" values="0 0 0 0 0 0 0 0 0 0 0 0 0 0 0 0 0 0 127 0" result="hardAlpha"/>
<feOffset dy="4"/>
<feGaussianBlur stdDeviation="2"/>
<feComposite in2="hardAlpha" operator="out"/>
<feColorMatrix type="matrix" values="0 0 0 0 0 0 0 0 0 0 0 0 0 0 0 0 0 0 0.25 0"/>
<feBlend mode="normal" in2="BackgroundImageFix" result="effect1_dropShadow_1_21"/>
<feBlend mode="normal" in="SourceGraphic" in2="effect1_dropShadow_1_21" result="shape"/>
</filter>
<filter id="filter1_d_1_21" x="0.323975" y="25.36" width="56" height="64.64" filterUnits="userSpaceOnUse" color-interpolation-filters="sRGB">
<feFlood flood-opacity="0" result="BackgroundImageFix"/>
<feColorMatrix in="SourceAlpha" type="matrix" values="0 0 0 0 0 0 0 0 0 0 0 0 0 0 0 0 0 0 127 0" result="hardAlpha"/>
<feOffset dy="4"/>
<feGaussianBlur stdDeviation="2"/>
<feComposite in2="hardAlpha" operator="out"/>
<feColorMatrix type="matrix" values="0 0 0 0 0 0 0 0 0 0 0 0 0 0 0 0 0 0 0.25 0"/>
<feBlend mode="normal" in2="BackgroundImageFix" result="effect1_dropShadow_1_21"/>
<feBlend mode="normal" in="SourceGraphic" in2="effect1_dropShadow_1_21" result="shape"/>
</filter>
</defs>
</svg>
